<svg xmlns="http://www.w3.org/2000/svg" width="221.001" height="149.622" viewBox="0 0 221.001 149.622">
  <g transform="translate(-371.5 -153.5)">
    <path id="Icon_awesome-parachute-box" data-name="Icon awesome-parachute-box" d="M219.956,75.195C216.046,42.71,186.269,18.3,151.937,7c15.64,16.93,26.812,43.226,26.812,75.5h12.074l-50.1,55.644a13.4,13.4,0,0,0-3.223-.645H116.875v-55H165C165,33,135.394,0,110,0S55,33,55,82.5h48.125v55H82.5a13.4,13.4,0,0,0-3.223.645L29.176,82.5H41.251c0-32.269,11.172-58.566,26.812-75.5C33.731,18.347,3.954,42.753.044,75.195c-.473,3.91,2.922,7.3,6.875,7.3h3.738l58.738,65.269c-.3,1.117,81.425,1.16,81.124,0L209.3,82.5h3.738c4,0,7.391-3.352,6.918-7.3Z" transform="translate(372 154)" fill="#1e1e1e"/>
    <path id="Icon_awesome-parachute-box_-_Contorno" data-name="Icon awesome-parachute-box - Contorno" d="M110.533,149.122c-10.581,0-20.53-.074-28.015-.21-4.007-.072-7.165-.16-9.385-.26-1.174-.053-2.09-.11-2.722-.17-1.024-.1-1.25-.181-1.407-.387a.544.544,0,0,1-.039-.058L10.434,83H6.919A7.572,7.572,0,0,1,1.26,80.442,6.714,6.714,0,0,1-.452,75.135,62.9,62.9,0,0,1,7.056,52.207,80.324,80.324,0,0,1,22.3,32.825,109.374,109.374,0,0,1,43.253,17.448,135.284,135.284,0,0,1,67.906,6.529l1.837-.607L68.43,7.343C51.475,25.7,41.751,53.089,41.751,82.5V83H30.3l49.148,54.586c.176-.046.351-.094.522-.142A9.247,9.247,0,0,1,82.5,137h20.125V83H54.5v-.5a112.621,112.621,0,0,1,5.046-33.924A96.385,96.385,0,0,1,65.26,34.419a84.42,84.42,0,0,1,7.314-12.027,71,71,0,0,1,8.521-9.7A56.775,56.775,0,0,1,90.433,5.5,43.489,43.489,0,0,1,100.2,1.037a32.024,32.024,0,0,1,19.6,0A43.489,43.489,0,0,1,129.567,5.5a56.775,56.775,0,0,1,9.338,7.185,71,71,0,0,1,8.521,9.7,84.421,84.421,0,0,1,7.314,12.027,96.385,96.385,0,0,1,5.714,14.157A112.621,112.621,0,0,1,165.5,82.5V83H117.375v54H137.5a9.246,9.246,0,0,1,2.531.444c.171.047.346.1.522.142L189.7,83H178.249v-.5c0-29.41-9.724-56.8-26.679-75.156l-1.31-1.418,1.833.6a134.83,134.83,0,0,1,24.653,10.895A109.111,109.111,0,0,1,197.7,32.792a80.259,80.259,0,0,1,15.246,19.391,62.989,62.989,0,0,1,7.508,22.952,6.716,6.716,0,0,1-1.7,5.309A7.635,7.635,0,0,1,213.038,83h-3.516L150.95,148.037a.546.546,0,0,1-.042.062c-.156.2-.387.29-1.373.387-.612.06-1.5.118-2.634.171-2.144.1-5.2.188-9.081.259C130.636,149.049,120.946,149.122,110.533,149.122Zm-40.809-1.736c.441.1,2.633.35,13.411.537,7.4.128,17.135.2,27.4.2,10.1,0,19.572-.069,26.681-.195,10.235-.181,12.5-.421,12.971-.536L209.077,82h3.961A6.634,6.634,0,0,0,218,79.78a5.728,5.728,0,0,0,1.459-4.526c-4.12-34.228-36.383-56.985-65.869-67.165a91.506,91.506,0,0,1,9.562,13.056,104.689,104.689,0,0,1,8.525,17.679,118.024,118.024,0,0,1,5.575,20.558,132.332,132.332,0,0,1,2,22.616h12.7l-51.051,56.7-.289-.069c-.288-.069-.57-.147-.842-.223A8.346,8.346,0,0,0,137.5,138H116.375V82H164.5c-.093-22.45-6.434-43.392-17.879-59.016C136.307,8.9,122.617.5,110,.5S83.693,8.9,73.381,22.983C61.936,38.607,55.594,59.549,55.5,82h48.123v56H82.5a8.346,8.346,0,0,0-2.264.408c-.273.076-.554.154-.842.223l-.289.069L28.053,82h12.7a132.333,132.333,0,0,1,2-22.616,118.024,118.024,0,0,1,5.575-20.558,104.687,104.687,0,0,1,8.525-17.679A91.508,91.508,0,0,1,66.407,8.092C36.921,18.309,4.659,41.085.54,75.254a5.727,5.727,0,0,0,1.468,4.524A6.571,6.571,0,0,0,6.919,82H10.88Z" transform="translate(372 154)" fill="#1e1e1e"/>
  </g>
</svg>
